<?xml version="1.0" encoding="UTF-8" standalone="no"?>
<svg
   viewBox="0 0 20 21.500933"
   fill="currentColor"
   version="1.1"
   id="svg1"
   sodipodi:docname="at-line.svg"
   inkscape:version="1.4.2 (ebf0e940d0, 2025-05-08)"
   width="20"
   height="21.500933"
   inkscape:export-filename="at_crossed.svg"
   inkscape:export-xdpi="89.298454"
   inkscape:export-ydpi="89.298454"
   xmlns:inkscape="http://www.inkscape.org/namespaces/inkscape"
   xmlns:sodipodi="http://sodipodi.sourceforge.net/DTD/sodipodi-0.dtd"
   xmlns="http://www.w3.org/2000/svg"
   xmlns:svg="http://www.w3.org/2000/svg">
  <defs
     id="defs1" />
  <sodipodi:namedview
     id="namedview1"
     pagecolor="#000000"
     bordercolor="#000000"
     borderopacity="0.25"
     inkscape:showpageshadow="false"
     inkscape:pageopacity="0.0"
     inkscape:pagecheckerboard="true"
     inkscape:deskcolor="#d1d1d1"
     inkscape:zoom="25.691546"
     inkscape:cx="9.8670589"
     inkscape:cy="7.3954287"
     inkscape:window-width="2538"
     inkscape:window-height="1386"
     inkscape:window-x="0"
     inkscape:window-y="0"
     inkscape:window-maximized="1"
     inkscape:current-layer="svg1" />
  <path
     id="path51"
     d="M 7.8027344,18.41426 6.6523438,20.146682 C 7.699058,20.518482 8.825764,20.720901 10,20.720901 c 2.0523,0 3.959475,-0.617334 5.546875,-1.677734 L 14.4375,17.377151 c -1.27,0.8483 -2.7957,1.34375 -4.4375,1.34375 -0.762186,0 -1.498962,-0.107559 -2.1972656,-0.306641 z"
     inkscape:label="outer_lower_a" />
  <path
     id="path46"
     d="m 11.044922,13.533401 -1.44336,2.171875 c 0.131214,0.01033 0.264571,0.01563 0.398438,0.01563 1.4158,0 2.693916,-0.587603 3.603516,-1.533203 0.6298,0.9259 1.692284,1.533203 2.896484,1.533203 1.933,0 3.5,-1.567 3.5,-3.5 v -1.5 C 20,8.1250479 19.010546,5.7601319 17.388672,3.9826198 L 16.240234,5.7130885 C 17.341745,7.0838318 18,8.825567 18,10.720901 v 1.5 c 0,0.8284 -0.6716,1.5 -1.5,1.5 -0.8284,0 -1.5,-0.6716 -1.5,-1.5 V 7.5783229 l -2.001953,3.0156251 c 0.0017,0.04203 0.002,0.08449 0.002,0.126953 0,1.28956 -0.813186,2.38837 -1.955078,2.8125 z"
     inkscape:label="inner_lower_a" />
  <path
     id="path42"
     d="M 11.046875,5.830276 C 10.709403,5.7584116 10.3589,5.720901 10,5.720901 c -2.76142,0 -5,2.23858 -5,5 0,1.063738 0.3321397,2.050829 0.8984375,2.861328 L 7.1582031,11.683792 C 7.0556473,11.381292 7,11.05806 7,10.720901 7,9.135984 8.228179,7.8384858 9.785156,7.7287135 Z"
     inkscape:label="inner_upper_a" />
  <path
     id="path40"
     d="M 13.912109,1.5158229 C 12.710347,1.0043928 11.388465,0.720901 10,0.720901 c -5.52285,0 -10,4.47715 -10,10 0,2.814161 1.1622575,5.356646 3.0332031,7.173828 L 4.1640625,16.193557 C 2.822003,14.762753 2,12.837419 2,10.720901 c 0,-4.41828 3.58172,-8 8,-8 0.978211,0 1.914847,0.174749 2.78125,0.4960938 z"
     inkscape:label="outer_upper_a" />
  <path
     style="baseline-shift:baseline;display:inline;overflow:visible;opacity:1;vector-effect:none;fill:#000000;paint-order:stroke markers fill;enable-background:accumulate;stop-color:#000000;stop-opacity:1"
     d="M 16.179315,0 2.668994,20.339211 4.4924162,21.500933 18.002737,1.1617235 Z"
     id="path38"
     sodipodi:insensitive="true"
     inkscape:label="stroke" />
</svg>
