<?xml version="1.0" encoding="UTF-8" standalone="no"?>
<!-- Created with Inkscape (http://www.inkscape.org/) -->

<svg
   width="286.69571mm"
   height="202.19449mm"
   viewBox="0 0 286.69571 202.19449"
   version="1.1"
   id="svg1"
   inkscape:version="1.4.2 (ebf0e940d0, 2025-05-08)"
   sodipodi:docname="logo.svg"
   xmlns:inkscape="http://www.inkscape.org/namespaces/inkscape"
   xmlns:sodipodi="http://sodipodi.sourceforge.net/DTD/sodipodi-0.dtd"
   xmlns="http://www.w3.org/2000/svg"
   xmlns:svg="http://www.w3.org/2000/svg">
  <sodipodi:namedview
     id="namedview1"
     pagecolor="#000000"
     bordercolor="#000000"
     borderopacity="0.24705882"
     inkscape:showpageshadow="false"
     inkscape:pageopacity="0.0"
     inkscape:pagecheckerboard="true"
     inkscape:deskcolor="#d1d1d1"
     inkscape:document-units="mm"
     inkscape:zoom="1.0129245"
     inkscape:cx="400.32598"
     inkscape:cy="521.26293"
     inkscape:window-width="2538"
     inkscape:window-height="1386"
     inkscape:window-x="0"
     inkscape:window-y="0"
     inkscape:window-maximized="1"
     inkscape:current-layer="layer1"
     showgrid="false"
     borderlayer="false"
     showborder="true"
     inkscape:export-bgcolor="#ffffff00">
    <inkscape:grid
       id="grid52"
       units="mm"
       originx="-0.41073027"
       originy="-6.0547293"
       spacingx="1"
       spacingy="0.99999998"
       empcolor="#0099e5"
       empopacity="0.30196078"
       color="#0099e5"
       opacity="0.14901961"
       empspacing="5"
       enabled="true"
       visible="false" />
  </sodipodi:namedview>
  <defs
     id="defs1" />
  <g
     inkscape:label="Layer 1"
     inkscape:groupmode="layer"
     id="layer1"
     transform="translate(-0.41073027,-6.0547293)">
    <path
       d="m 136.00325,125.62171 1.83874,13.4437 c 5.21267,-0.73868 10.30146,-2.32196 14.76091,-5.36629 1.9438,-1.32697 4.01854,-2.90005 6.1629,-4.6389 a 51.786852,55.548163 0 0 1 -5.76848,-12.08273 c -2.58606,2.21434 -4.98943,4.12375 -7.03982,5.52349 -2.21603,1.51282 -5.8032,2.53891 -9.95425,3.12073 z"
       style="baseline-shift:baseline;display:inline;overflow:visible;opacity:1;vector-effect:none;stroke-width:1.26074;stroke-linecap:round;enable-background:accumulate;stop-color:#000000;stop-opacity:1"
       id="path18"
       inkscape:label="small_chain"
       inkscape:export-filename="logo_publish.svg"
       inkscape:export-xdpi="96"
       inkscape:export-ydpi="96" />
    <path
       d="m 222.74413,73.706336 c -2.08122,3.386638 -4.25568,6.677583 -6.4332,9.809221 5.36167,5.587792 8.64417,13.170756 8.64392,21.494813 0.30472,4.66152 -0.76278,9.31021 -3.07062,13.3718 l 52.21697,52.22265 c 1.05383,1.06141 1.64781,2.49476 1.65365,3.99045 v 12.25972 h -12.25403 c -1.49876,0.001 -2.93647,-0.59375 -3.99614,-1.65365 l -6.32727,-6.32778 v -20.24062 h -16.93333 l -3.91811,-14.32161 -16.31735,-2.61172 -8.72091,-8.72092 c -4.18224,1.98596 -8.74733,3.0358 -13.37696,3.0763 -10.77481,7e-5 -20.77911,-5.58683 -26.43095,-14.76034 -1.93302,-3.13755 -3.29196,-6.59421 -4.01319,-10.20816 -3.80069,-19.040052 10.57812,-36.666896 29.66176,-37.11402 2.57867,-3.504911 5.20413,-7.271067 7.66258,-11.129036 -2.02442,-0.336849 -4.10399,-0.5322 -6.2296,-0.575159 -29.91829,-0.604564 -51.09409,29.050508 -40.81094,57.152585 1.19532,3.2667 2.78677,6.37447 4.73873,9.2537 10.08678,14.87816 28.43609,21.81117 45.84113,17.32039 l 6.99337,6.99337 10.758,2.0898 2.87321,14.84354 h 16.93333 v 13.62552 l 9.63507,9.63507 c 5.19462,4.75347 5.2626,4.90734 11.97757,4.96146 h 12.25403 c 11.26299,3.4e-4 11.28907,-0.067 11.28923,-11.28872 v -12.25972 c 0.20871,-6.97483 0.1851,-6.91105 -4.96145,-11.97188 l -47.18782,-47.19298 c 4.09645,-15.876484 -1.29549,-31.553169 -12.15068,-41.724074 z"
       style="display:inline;stroke-width:14.744"
       id="path90"
       sodipodi:nodetypes="ccccccccccccccccsccccsccccccccccccccc" />
    <path
       d="m 64.159491,119.24206 c 3.634706,0.49668 7.307566,0.86739 10.887707,1.10381 1.044281,0.069 2.080393,0.12993 3.10627,0.18345 l 11.059274,-10.76885 40.205818,5.59294 2.74557,18.71772 h 5.2e-4 l 1.50688,10.27379 1.49035,10.15907 -42.120431,41.01455 -45.949134,-44.74352 8.111133,-7.89823 c -4.281323,-0.61303 -8.574324,-1.40903 -12.774931,-2.47478 l -6.823356,6.64456 c -2.114773,2.05974 -2.114773,5.39789 0,7.45742 l 53.607581,52.20043 c 2.11519,2.05974 5.543314,2.05974 7.657934,0 l 49.778354,-48.47146 -2.08566,-14.21773 -1.5105,-10.29602 -4.06177,-27.6872 -53.607582,-7.457424 z"
       style="display:inline;stroke-width:5.34364"
       id="path99" />
    <path
       style="baseline-shift:baseline;display:inline;overflow:visible;opacity:1;vector-effect:none;stroke-linecap:round;stroke-linejoin:round;paint-order:markers stroke fill;enable-background:accumulate;stop-color:#000000;stop-opacity:1"
       d="M 199.27736,6.1642217 C 176.75312,4.8180573 159.16228,16.106924 145.08204,27.797034 128.99034,41.15716 115.99108,54.261463 104.12892,55.527503 90.624467,56.968822 85.692572,51.914541 76.86134,45.291174 68.030108,38.667808 55.378445,31.231802 35.179699,35.11344 13.966261,39.190074 2.5489864,56.176358 0.72657372,73.711096 -1.0958385,91.245835 5.0269744,109.95822 17.572277,122.14469 c 13.51639,13.12979 36.416904,16.16609 56.203125,17.47266 19.786222,1.30657 36.757818,-0.0586 36.757818,-0.0586 a 7.1325002,7.1325002 0 0 0 6.54297,-7.67774 7.1325002,7.1325002 0 0 0 -7.67774,-6.54297 c 0,0 -16.084519,1.27505 -34.683595,0.0469 C 56.11578,124.15675 35.304202,119.48381 27.51173,111.91422 18.748172,103.40132 13.566153,88.173814 14.916027,75.185706 c 1.349874,-12.988108 7.580946,-23.107643 22.957032,-26.0625 16.390778,-3.149852 22.12506,1.351661 30.429687,7.580078 8.304628,6.228417 19.258387,14.939585 37.339844,13.009765 19.72374,-2.105099 33.461,-18.413127 48.55078,-30.941406 15.08978,-12.528279 30.0396,-22.055113 52.01367,-17.28125 5.12996,1.114481 7.85795,2.862697 9.40235,4.607422 1.5444,1.744726 2.28584,3.756545 2.37695,6.873047 0.18223,6.233004 -3.40993,16.178082 -8.9414,25.955078 -11.06295,19.553991 -28.51563,38.542969 -28.51563,38.542969 a 7.1325002,7.1325002 0 0 0 0.39063,10.080081 7.1325002,7.1325002 0 0 0 10.08007,-0.39062 c 0,0 18.20536,-19.545025 30.46094,-41.207039 6.12779,-10.831007 11.11163,-22.164772 10.7832,-33.398438 -0.16421,-5.616833 -1.94978,-11.387547 -5.95312,-15.910156 -4.00334,-4.522609 -9.84451,-7.5253878 -17.05469,-9.0917966 -3.4233,-0.743712 -6.74123,-1.1944095 -9.95898,-1.3867187 z"
       id="path34"
       inkscape:label="large_chain" />
  </g>
  <g
     inkscape:groupmode="layer"
     id="layer2"
     inkscape:label="Backups"
     sodipodi:insensitive="true"
     transform="translate(-0.41073027,-6.0547293)">
    <path
       id="path10-3-7"
       style="display:none;stroke-width:14.744;stroke-dasharray:none"
       d="m 257.48899,73.82784 c -29.91829,-0.604564 -51.09409,29.05051 -40.81094,57.15259 1.19532,3.2667 2.78677,6.37447 4.73873,9.2537 10.08678,14.87816 28.43609,21.81117 45.84113,17.32039 l 6.99337,6.99337 10.75793,2.08966 2.87328,14.84367 h 16.93333 v 13.62553 l 9.63507,9.63507 c 3.17026,3.18623 7.48286,4.97263 11.97757,4.96145 h 12.25403 c 6.23475,1.9e-4 11.28914,-5.05397 11.28923,-11.28872 v -12.25971 c 0.0128,-4.49336 -1.77396,-8.8048 -4.96145,-11.97188 l -47.18782,-47.19299 c 6.85918,-26.58391 -12.88452,-52.607382 -40.33346,-53.16213 z m 0.60927,11.722282 c 16.64178,0.676112 29.78474,14.364305 29.78423,31.019818 0.30472,4.66152 -0.76278,9.3102 -3.07062,13.37179 l 52.21697,52.22265 c 1.05383,1.06141 1.64781,2.49477 1.65365,3.99046 v 12.25971 h -12.25403 c -1.49876,0.001 -2.93647,-0.59374 -3.99614,-1.65364 l -6.32727,-6.32778 V 170.1925 h -16.93333 l -3.91811,-14.32126 -16.31735,-2.61207 -8.72091,-8.72091 c -4.18224,1.98596 -8.74733,3.03579 -13.37696,3.07629 -10.77481,7e-5 -20.77911,-5.58682 -26.43095,-14.76033 -1.93302,-3.13755 -3.29196,-6.59422 -4.01319,-10.20817 -3.93515,-19.71364 11.61802,-37.911947 31.70401,-37.095928 z"
       sodipodi:nodetypes="cccccccccccccccccsccccccccccccccscs"
       inkscape:label="key_backup" />
    <path
       id="path17-1"
       style="display:none;stroke-width:5.34364"
       d="M 130.21027,57.679165 80.431913,106.15115 c -2.114773,2.05974 -2.114773,5.39789 0,7.45742 L 134.03949,165.809 c 2.11519,2.05974 5.54331,2.05974 7.65793,0 l 49.77836,-48.47146 -2.08566,-14.21773 -1.5105,-10.29601 -4.06177,-27.6872 z m 3.82922,11.185885 40.20582,5.59294 2.74557,18.71772 h 5.2e-4 l 1.50688,10.27379 1.49035,10.15907 -42.12043,41.01455 -45.949133,-44.74352 z"
       sodipodi:nodetypes="ccccccccccccccccccc"
       inkscape:label="label_backup" />
    <path
       style="display:none;fill:none;stroke:#000000;stroke-width:14.265;stroke-linecap:round;stroke-dasharray:none"
       d="m 117.49216,106.5505 c 0,0 -66.116162,5.2802 -87.425023,-15.419173 C 8.758276,70.431949 7.4625187,23.25169 44.052042,16.220199 80.641566,9.188709 80.825569,40.09359 112.41148,36.722451 c 31.5859,-3.371139 53.47566,-58.82416 102.83616,-48.1006 49.3605,10.723559 -21.9568,87.79379 -21.9568,87.79379"
       id="path2-0"
       sodipodi:nodetypes="cszzzc"
       inkscape:label="backup_large_chain" />
    <path
       style="display:none;fill:none;stroke:#000000;stroke-width:10.165;stroke-linecap:round;stroke-dasharray:none"
       d="m 69.640832,81.426806 c 0,0 26.45356,6.12936 38.136268,-1.30604 11.6827,-7.4354 32.38971,-28.4716 32.38971,-28.4716"
       id="path3-7"
       inkscape:label="backup_small_chain" />
    <g
       id="g79"
       inkscape:label="label_filled"
       style="display:none">
      <path
         d="m 91.711715,108.1934 -42.120427,41.01455 45.949134,44.74352 42.120428,-41.01455 -1.49035,-10.15907 -1.50689,-10.27379 h -5.1e-4 l -2.74557,-18.71772 z"
         style="stroke-width:5.34364"
         id="path61" />
      <path
         d="M 87.882491,97.007515 38.104134,145.47949 c -2.114773,2.05974 -2.114773,5.3979 0,7.45743 l 53.607581,52.20043 c 2.115182,2.05974 5.543306,2.05974 7.65793,0 l 49.778355,-48.47146 -2.08566,-14.21774 -1.5105,-10.29601 -4.06177,-27.6872 z m 3.829224,11.185885 40.205815,5.59294 2.74557,18.71772 h 5.1e-4 l 1.50689,10.27379 1.49035,10.15907 -42.120428,41.01455 -45.949134,-44.74352 z"
         style="stroke-width:5.34364"
         id="path60" />
    </g>
    <g
       id="g78"
       inkscape:label="key_filled"
       style="display:none">
      <path
         d="m 200.93244,79.043237 c -20.08599,-0.816019 -35.63916,17.382295 -31.70401,37.095923 0.72123,3.61395 2.08017,7.07062 4.01319,10.20817 5.65184,9.17351 15.65614,14.76041 26.43095,14.76034 4.62963,-0.0405 9.19472,-1.09034 13.37696,-3.0763 l 8.72091,8.72091 16.31735,2.61225 3.91811,14.32109 h 16.93333 v 20.24062 l 6.32727,6.32778 c 1.05967,1.0599 2.49737,1.65465 3.99613,1.65365 h 12.25404 v -12.25972 c -0.006,-1.49569 -0.59982,-2.92904 -1.65365,-3.99045 l -52.21697,-52.22266 c 2.30784,-4.06159 3.37534,-8.71027 3.07062,-13.37179 5.1e-4,-16.65551 -13.14245,-30.343701 -29.78423,-31.019813 z"
         style="stroke-width:14.744"
         id="path63" />
      <path
         d="m 200.32317,67.320955 c -29.91829,-0.604564 -51.09409,29.050512 -40.81094,57.152585 1.19532,3.2667 2.78677,6.37447 4.73873,9.2537 10.08678,14.87816 28.43609,21.81117 45.84113,17.32039 l 6.99337,6.99337 10.758,2.08979 2.87321,14.84354 H 247.65 v 13.62553 l 9.63507,9.63507 c 3.17026,3.18623 7.48285,4.97263 11.97756,4.96145 h 12.25404 c 6.23475,1.9e-4 11.28914,-5.05396 11.28923,-11.28871 v -12.25972 c 0.0128,-4.49336 -1.77396,-8.8048 -4.96145,-11.97188 L 240.65663,120.48309 C 247.51581,93.899182 227.77211,67.875703 200.32317,67.320955 Z m 0.60927,11.722282 c 16.64178,0.676112 29.78474,14.364303 29.78423,31.019813 0.30472,4.66152 -0.76278,9.3102 -3.07062,13.37179 l 52.21697,52.22266 c 1.05383,1.06141 1.64781,2.49476 1.65365,3.99045 v 12.25972 h -12.25404 c -1.49876,0.001 -2.93646,-0.59375 -3.99613,-1.65365 l -6.32727,-6.32778 V 163.68562 H 242.0059 l -3.91811,-14.32109 -16.31735,-2.61225 -8.72091,-8.72091 c -4.18224,1.98596 -8.74733,3.0358 -13.37696,3.0763 -10.77481,7e-5 -20.77911,-5.58683 -26.43095,-14.76034 -1.93302,-3.13755 -3.29196,-6.59422 -4.01319,-10.20817 -3.93515,-19.713628 11.61802,-37.911942 31.70401,-37.095923 z"
         style="stroke-width:14.744"
         id="path62" />
    </g>
  </g>
</svg>
