<?xml version="1.0" encoding="UTF-8" standalone="no"?>
<!-- Created with Inkscape (http://www.inkscape.org/) -->

<svg
   width="286.69571mm"
   height="202.19449mm"
   viewBox="0 0 286.69571 202.19449"
   version="1.1"
   id="svg1"
   xmlns="http://www.w3.org/2000/svg"
   xmlns:svg="http://www.w3.org/2000/svg">
  <defs
     id="defs1" />
  <g
     id="layer1"
     transform="translate(-0.41073027,-6.0547293)">
    <path
       d="m 136.00325,125.62171 1.83874,13.4437 c 5.21267,-0.73868 10.30146,-2.32196 14.76091,-5.36629 1.9438,-1.32697 4.01854,-2.90005 6.1629,-4.6389 a 51.786852,55.548163 0 0 1 -5.76848,-12.08273 c -2.58606,2.21434 -4.98943,4.12375 -7.03982,5.52349 -2.21603,1.51282 -5.8032,2.53891 -9.95425,3.12073 z"
       style="baseline-shift:baseline;display:inline;overflow:visible;opacity:1;vector-effect:none;stroke-width:1.26074;stroke-linecap:round;enable-background:accumulate;stop-color:#000000;stop-opacity:1"
       id="path18" />
    <path
       d="m 222.74413,73.706336 c -2.08122,3.386638 -4.25568,6.677583 -6.4332,9.809221 5.36167,5.587792 8.64417,13.170756 8.64392,21.494813 0.30472,4.66152 -0.76278,9.31021 -3.07062,13.3718 l 52.21697,52.22265 c 1.05383,1.06141 1.64781,2.49476 1.65365,3.99045 v 12.25972 h -12.25403 c -1.49876,0.001 -2.93647,-0.59375 -3.99614,-1.65365 l -6.32727,-6.32778 v -20.24062 h -16.93333 l -3.91811,-14.32161 -16.31735,-2.61172 -8.72091,-8.72092 c -4.18224,1.98596 -8.74733,3.0358 -13.37696,3.0763 -10.77481,7e-5 -20.77911,-5.58683 -26.43095,-14.76034 -1.93302,-3.13755 -3.29196,-6.59421 -4.01319,-10.20816 -3.80069,-19.040052 10.57812,-36.666896 29.66176,-37.11402 2.57867,-3.504911 5.20413,-7.271067 7.66258,-11.129036 -2.02442,-0.336849 -4.10399,-0.5322 -6.2296,-0.575159 -29.91829,-0.604564 -51.09409,29.050508 -40.81094,57.152585 1.19532,3.2667 2.78677,6.37447 4.73873,9.2537 10.08678,14.87816 28.43609,21.81117 45.84113,17.32039 l 6.99337,6.99337 10.758,2.0898 2.87321,14.84354 h 16.93333 v 13.62552 l 9.63507,9.63507 c 5.19462,4.75347 5.2626,4.90734 11.97757,4.96146 h 12.25403 c 11.26299,3.4e-4 11.28907,-0.067 11.28923,-11.28872 v -12.25972 c 0.20871,-6.97483 0.1851,-6.91105 -4.96145,-11.97188 l -47.18782,-47.19298 c 4.09645,-15.876484 -1.29549,-31.553169 -12.15068,-41.724074 z"
       style="display:inline;stroke-width:14.744"
       id="path90" />
    <path
       d="m 64.159491,119.24206 c 3.634706,0.49668 7.307566,0.86739 10.887707,1.10381 1.044281,0.069 2.080393,0.12993 3.10627,0.18345 l 11.059274,-10.76885 40.205818,5.59294 2.74557,18.71772 h 5.2e-4 l 1.50688,10.27379 1.49035,10.15907 -42.120431,41.01455 -45.949134,-44.74352 8.111133,-7.89823 c -4.281323,-0.61303 -8.574324,-1.40903 -12.774931,-2.47478 l -6.823356,6.64456 c -2.114773,2.05974 -2.114773,5.39789 0,7.45742 l 53.607581,52.20043 c 2.11519,2.05974 5.543314,2.05974 7.657934,0 l 49.778354,-48.47146 -2.08566,-14.21773 -1.5105,-10.29602 -4.06177,-27.6872 -53.607582,-7.457424 z"
       style="display:inline;stroke-width:5.34364"
       id="path99" />
    <path
       style="baseline-shift:baseline;display:inline;overflow:visible;opacity:1;vector-effect:none;stroke-linecap:round;stroke-linejoin:round;paint-order:markers stroke fill;enable-background:accumulate;stop-color:#000000;stop-opacity:1"
       d="M 199.27736,6.1642217 C 176.75312,4.8180573 159.16228,16.106924 145.08204,27.797034 128.99034,41.15716 115.99108,54.261463 104.12892,55.527503 90.624467,56.968822 85.692572,51.914541 76.86134,45.291174 68.030108,38.667808 55.378445,31.231802 35.179699,35.11344 13.966261,39.190074 2.5489864,56.176358 0.72657372,73.711096 -1.0958385,91.245835 5.0269744,109.95822 17.572277,122.14469 c 13.51639,13.12979 36.416904,16.16609 56.203125,17.47266 19.786222,1.30657 36.757818,-0.0586 36.757818,-0.0586 a 7.1325002,7.1325002 0 0 0 6.54297,-7.67774 7.1325002,7.1325002 0 0 0 -7.67774,-6.54297 c 0,0 -16.084519,1.27505 -34.683595,0.0469 C 56.11578,124.15675 35.304202,119.48381 27.51173,111.91422 18.748172,103.40132 13.566153,88.173814 14.916027,75.185706 c 1.349874,-12.988108 7.580946,-23.107643 22.957032,-26.0625 16.390778,-3.149852 22.12506,1.351661 30.429687,7.580078 8.304628,6.228417 19.258387,14.939585 37.339844,13.009765 19.72374,-2.105099 33.461,-18.413127 48.55078,-30.941406 15.08978,-12.528279 30.0396,-22.055113 52.01367,-17.28125 5.12996,1.114481 7.85795,2.862697 9.40235,4.607422 1.5444,1.744726 2.28584,3.756545 2.37695,6.873047 0.18223,6.233004 -3.40993,16.178082 -8.9414,25.955078 -11.06295,19.553991 -28.51563,38.542969 -28.51563,38.542969 a 7.1325002,7.1325002 0 0 0 0.39063,10.080081 7.1325002,7.1325002 0 0 0 10.08007,-0.39062 c 0,0 18.20536,-19.545025 30.46094,-41.207039 6.12779,-10.831007 11.11163,-22.164772 10.7832,-33.398438 -0.16421,-5.616833 -1.94978,-11.387547 -5.95312,-15.910156 -4.00334,-4.522609 -9.84451,-7.5253878 -17.05469,-9.0917966 -3.4233,-0.743712 -6.74123,-1.1944095 -9.95898,-1.3867187 z"
       id="path34" />
  </g>
</svg>
