<?xml version="1.0" encoding="UTF-8" standalone="no"?>
<svg
   viewBox="0 0 24 24"
   fill="currentColor"
   version="1.1"
   id="svg1"
   sodipodi:docname="at-line.svg"
   inkscape:version="1.4.2 (ebf0e940d0, 2025-05-08)"
   xmlns:inkscape="http://www.inkscape.org/namespaces/inkscape"
   xmlns:sodipodi="http://sodipodi.sourceforge.net/DTD/sodipodi-0.dtd"
   xmlns="http://www.w3.org/2000/svg"
   xmlns:svg="http://www.w3.org/2000/svg">
  <defs
     id="defs1" />
  <sodipodi:namedview
     id="namedview1"
     pagecolor="#ffffff"
     bordercolor="#000000"
     borderopacity="0.25"
     inkscape:showpageshadow="2"
     inkscape:pageopacity="0.0"
     inkscape:pagecheckerboard="0"
     inkscape:deskcolor="#d1d1d1"
     inkscape:zoom="3.2114433"
     inkscape:cx="11.832686"
     inkscape:cy="20.240121"
     inkscape:window-width="1906"
     inkscape:window-height="1034"
     inkscape:window-x="0"
     inkscape:window-y="0"
     inkscape:window-maximized="1"
     inkscape:current-layer="svg1" />
  <path
     id="path51"
     d="M 9.8027344 19.693359 L 8.6523438 21.425781 C 9.699058 21.797581 10.825764 22 12 22 C 14.0523 22 15.959475 21.382666 17.546875 20.322266 L 16.4375 18.65625 C 15.1675 19.50455 13.6418 20 12 20 C 11.237814 20 10.501038 19.892441 9.8027344 19.693359 z "
     inkscape:label="outer_lower_a" />
  <path
     id="path46"
     d="M 13.044922 14.8125 L 11.601562 16.984375 C 11.732776 16.994701 11.866133 17 12 17 C 13.4158 17 14.693916 16.412397 15.603516 15.466797 C 16.233316 16.392697 17.2958 17 18.5 17 C 20.433 17 22 15.433 22 13.5 L 22 12 C 22 9.4041469 21.010546 7.0392309 19.388672 5.2617188 L 18.240234 6.9921875 C 19.341745 8.3629308 20 10.104666 20 12 L 20 13.5 C 20 14.3284 19.3284 15 18.5 15 C 17.6716 15 17 14.3284 17 13.5 L 17 8.8574219 L 14.998047 11.873047 C 14.999794 11.91508 15 11.957538 15 12 C 15 13.28956 14.186814 14.38837 13.044922 14.8125 z "
     inkscape:label="inner_lower_a" />
  <path
     id="path42"
     d="M 13.046875 7.109375 C 12.709403 7.0375106 12.3589 7 12 7 C 9.23858 7 7 9.23858 7 12 C 7 13.063738 7.3321397 14.050829 7.8984375 14.861328 L 9.1582031 12.962891 C 9.0556473 12.660391 9 12.337159 9 12 C 9 10.415083 10.228179 9.1175848 11.785156 9.0078125 L 13.046875 7.109375 z "
     inkscape:label="inner_upper_a" />
  <path
     id="path40"
     d="M 15.912109 2.7949219 C 14.710347 2.2834918 13.388465 2 12 2 C 6.47715 2 2 6.47715 2 12 C 2 14.814161 3.1622575 17.356646 5.0332031 19.173828 L 6.1640625 17.472656 C 4.822003 16.041852 4 14.116518 4 12 C 4 7.58172 7.58172 4 12 4 C 12.978211 4 13.914847 4.174749 14.78125 4.4960938 L 15.912109 2.7949219 z "
     inkscape:label="outer_upper_a" />
  <path
     style="opacity:1;baseline-shift:baseline;display:inline;overflow:visible;vector-effect:none;fill:#000000;paint-order:stroke markers fill;enable-background:accumulate;stop-color:#000000;stop-opacity:1"
     d="M 18.179315,1.279099 4.668994,21.61831 6.4924162,22.780032 20.002737,2.4408225 Z"
     id="path38"
     sodipodi:insensitive="true"
     inkscape:label="stroke" />
</svg>
