<?xml version="1.0" encoding="UTF-8" standalone="no"?>
<!-- Created with Inkscape (http://www.inkscape.org/) -->

<svg
   width="297mm"
   height="210mm"
   viewBox="0 0 297 210"
   version="1.1"
   id="svg1"
   inkscape:version="1.4.2 (ebf0e940d0, 2025-05-08)"
   sodipodi:docname="logo.svg"
   xmlns:inkscape="http://www.inkscape.org/namespaces/inkscape"
   xmlns:sodipodi="http://sodipodi.sourceforge.net/DTD/sodipodi-0.dtd"
   xmlns="http://www.w3.org/2000/svg"
   xmlns:svg="http://www.w3.org/2000/svg">
  <sodipodi:namedview
     id="namedview1"
     pagecolor="#ffffff"
     bordercolor="#000000"
     borderopacity="0.25"
     inkscape:showpageshadow="2"
     inkscape:pageopacity="0.0"
     inkscape:pagecheckerboard="true"
     inkscape:deskcolor="#d1d1d1"
     inkscape:document-units="mm"
     inkscape:zoom="0.71624579"
     inkscape:cx="390.92725"
     inkscape:cy="404.88894"
     inkscape:window-width="1906"
     inkscape:window-height="1034"
     inkscape:window-x="0"
     inkscape:window-y="0"
     inkscape:window-maximized="1"
     inkscape:current-layer="layer1"
     showgrid="false">
    <inkscape:grid
       id="grid52"
       units="mm"
       originx="0"
       originy="0"
       spacingx="1"
       spacingy="0.99999998"
       empcolor="#0099e5"
       empopacity="0.30196078"
       color="#0099e5"
       opacity="0.14901961"
       empspacing="5"
       enabled="true"
       visible="false" />
  </sodipodi:namedview>
  <defs
     id="defs1" />
  <g
     inkscape:label="Layer 1"
     inkscape:groupmode="layer"
     id="layer1">
    <path
       d="m 104.25979,136.01909 c -1.4146,-0.27504 -2.23036,-0.46457 -2.23036,-0.46457 a 5.0825,5.0825 0 0 1 -3.804935,-6.09731 5.0825,5.0825 0 0 1 6.099885,-3.80493 c 0,0 0.57387,0.13243 1.58595,0.33279 -0.52255,-1.42395 -1.36948,-2.76027 -2.54041,-3.90053 -4.229783,-4.11848 -11.086611,-4.11848 -15.315863,0 -4.229803,4.11847 -4.229803,10.79586 0,14.91433 4.229252,4.11868 11.08608,4.11868 15.315863,0 0.32089,-0.31248 0.61767,-0.64007 0.88987,-0.97978 z"
       style="stroke-width:5.34364"
       id="path22" />
    <path
       id="path17"
       style="stroke-width:5.34364"
       d="M 72.737162,92.255351 22.958805,140.72733 c -2.114773,2.05974 -2.114773,5.39789 0,7.45742 l 53.607581,52.20043 c 2.115182,2.05974 5.543306,2.05974 7.65793,0 l 49.778354,-48.47146 -2.08566,-14.21773 -1.5105,-10.29601 -4.06177,-27.687203 z m 3.829224,11.185879 40.205814,5.59294 2.74557,18.71772 h 5.2e-4 l 1.50688,10.27379 1.49035,10.15907 -42.120427,41.01455 -45.949134,-44.74352 z"
       sodipodi:nodetypes="ccccccccccccccccccc" />
    <path
       d="m 170.51156,96.869539 a 5.0825,5.0825 0 0 1 3.15071,-1.125512 5.0825,5.0825 0 0 1 3.60546,1.459342 5.0825,5.0825 0 0 1 0.96997,5.892661 5.6444444,5.6444444 0 0 0 3.46697,-5.193479 5.6444444,5.6444444 0 0 0 -5.6441,-5.6441 5.6444444,5.6444444 0 0 0 -5.54901,4.611088 z"
       style="stroke-width:5.64444"
       id="path15" />
    <path
       id="path10"
       style="stroke-width:14.744;stroke-dasharray:none"
       d="m 185.17784,63.627124 c -29.91829,-0.604564 -51.09409,29.050514 -40.81094,57.152586 1.19532,3.2667 2.78677,6.37447 4.73873,9.2537 10.08678,14.87816 28.43609,21.81117 45.84113,17.32039 l 6.99337,6.99337 10.75793,2.08966 2.87328,14.84367 h 16.93333 v 13.62553 l 9.63507,9.63507 c 3.17026,3.18623 7.48286,4.97263 11.97757,4.96145 h 12.25403 c 6.23475,1.9e-4 11.28914,-5.05397 11.28923,-11.28872 v -12.25971 c 0.0128,-4.49336 -1.77396,-8.8048 -4.96145,-11.97188 L 225.5113,116.78925 C 232.37048,90.205347 212.62678,64.181872 185.17784,63.627124 Z m 0.60927,11.722282 c 16.64178,0.676112 29.78474,14.364305 29.78423,31.019814 0.30472,4.66152 -0.76278,9.3102 -3.07062,13.37179 l 52.21697,52.22265 c 1.05383,1.06141 1.64781,2.49477 1.65365,3.99046 v 12.25971 h -12.25403 c -1.49876,0.001 -2.93647,-0.59374 -3.99614,-1.65364 l -6.32727,-6.32778 v -20.24063 h -16.93333 l -3.91811,-14.32126 -16.31735,-2.61207 -8.72091,-8.72091 c -4.18224,1.98596 -8.74733,3.03579 -13.37696,3.07629 -10.77481,7e-5 -20.77911,-5.58682 -26.43095,-14.76033 -1.93302,-3.13755 -3.29196,-6.59422 -4.01319,-10.20817 -3.93515,-19.713632 11.61802,-37.911943 31.70401,-37.095924 z"
       sodipodi:nodetypes="cccccccccccccccccsccccccccccccccscs" />
    <path
       d="m 170.51156,96.869539 a 5.6444444,5.6444444 0 0 0 7.72614,6.226491 5.0825,5.0825 0 0 0 -0.96997,-5.892661 5.0825,5.0825 0 0 0 -3.60546,-1.459342 5.0825,5.0825 0 0 0 -3.15071,1.125512 z"
       style="baseline-shift:baseline;display:inline;overflow:visible;opacity:1;vector-effect:none;stroke-linecap:round;enable-background:accumulate;stop-color:#000000;stop-opacity:1"
       id="path16" />
    <path
       d="m 126.34308,121.66647 1.83874,13.4437 c 5.21267,-0.73868 10.30146,-2.32196 14.76091,-5.36629 1.9438,-1.32697 4.01854,-2.90005 6.1629,-4.6389 a 51.786852,55.548163 0 0 1 -5.76848,-12.08273 c -2.58606,2.21434 -4.98943,4.12375 -7.03982,5.52349 -2.21603,1.51282 -5.8032,2.53891 -9.95425,3.12073 z"
       style="baseline-shift:baseline;display:inline;overflow:visible;opacity:1;vector-effect:none;stroke-width:1.26074;stroke-linecap:round;enable-background:accumulate;stop-color:#000000;stop-opacity:1"
       id="path18" />
    <path
       style="baseline-shift:baseline;display:inline;overflow:visible;opacity:1;vector-effect:none;fill:#ffffff;stroke-linecap:round;stroke-linejoin:round;paint-order:markers stroke fill;enable-background:accumulate;stop-color:#000000;stop-opacity:1"
       d="M 189.91797,-2.8320313 C 165.5591,-4.2878427 146.63665,7.9671178 132.19531,19.957031 124.03933,26.728535 116.77523,33.32342 110.3125,38.214844 103.84977,43.106268 98.229965,46.092233 93.933594,46.550781 87.86528,47.198447 84.480414,46.450974 81.248047,44.916016 78.01568,43.381057 74.778363,40.707766 70.230469,37.296875 60.998583,30.373021 46.322731,22.018257 24.566406,26.199219 c -23.4367351,4.50389 -36.511502,23.676888 -38.523437,43.035156 -1.980827,19.058958 4.5401085,39.163615 18.3496091,52.578125 15.2821589,14.84505 39.3467659,17.56509 59.3906249,18.88867 20.204685,1.3342 37.489167,-0.0642 37.492187,-0.0644 6.64788,-0.53005 11.70473,-6.46547 11.17383,-13.11328 -0.53005,-6.64788 -6.46547,-11.70473 -13.113283,-11.17383 l 0.0039,-0.002 c 0,0 -15.774352,1.24336 -33.953125,0.043 -9.002932,-0.59451 -18.59361,-2.03918 -26.683594,-4.19727 -8.089984,-2.15809 -14.67495,-5.27634 -17.332031,-7.85742 -7.31832,-7.109035 -12.2623368,-21.321349 -11.09179,-32.584017 0.606286,-5.833514 2.259335,-10.592207 5.125,-14.144531 2.865665,-3.552324 6.998729,-6.18081 13.761719,-7.480469 7.650379,-1.47019 12.132378,-1.08613 15.693359,0.103516 3.560981,1.189646 6.580749,3.426799 10.753906,6.55664 8.201693,6.151216 21.014183,16.115044 40.904297,13.992188 22.214432,-2.370929 36.650582,-19.963459 51.242192,-32.078125 14.7966,-12.284867 27.56717,-20.607546 47.71484,-16.230469 4.42228,0.960738 5.99549,2.231145 6.69336,3.019531 0.79906,0.902706 1.04175,1.293802 1.11133,3.673828 0.12099,4.138389 -3.01891,14.005195 -8.28907,23.320313 -10.63204,18.792363 -27.83984,37.611328 -27.83984,37.611328 l 0.0117,-0.01172 c -4.52998,4.894488 -4.22721,12.687557 0.66797,17.216797 4.89035,4.52616 12.67416,4.22704 17.20508,-0.65625 l 0.004,-0.006 c 0.008,-0.008 18.48896,-19.766526 31.15625,-42.156249 6.29341,-11.123742 11.81049,-23.208643 11.43555,-36.033203 -0.19251,-6.584721 -2.29625,-13.548383 -7.21875,-19.1093752 -4.88393,-5.5174217 -11.79804,-8.94915704 -19.76367,-10.6796875 -3.6712,-0.797568 -7.25005,-1.2841796 -10.73047,-1.4921876 z M 189.31641,7.25 c 2.95507,0.1766105 6.01209,0.5913939 9.1875,1.28125 6.45472,1.4022871 11.22295,3.97611 14.3457,7.503906 3.08418,3.484226 4.55159,8.061992 4.6875,12.710938 0.28192,9.642771 -4.16869,20.225399 -10.13086,30.763672 -11.84121,20.92961 -29.76172,40.251953 -29.76172,40.251953 -0.004,0.0039 -0.008,0.0078 -0.0117,0.01172 -0.82182,0.888221 -2.05526,0.935241 -2.94336,0.113282 -0.88822,-0.821826 -0.93524,-2.055259 -0.11328,-2.94336 0.004,-0.0039 0.008,-0.0078 0.0117,-0.01172 0,0 17.69755,-19.15899 29.19141,-39.47461 5.79278,-10.238874 9.83722,-20.262224 9.59375,-28.589844 -0.11264,-3.852977 -1.35284,-7.485518 -3.64258,-10.072265 -2.39094,-2.701064 -6.27369,-4.927089 -12.11133,-6.195313 -23.80047,-5.1706485 -40.92954,5.56034 -56.3125,18.332032 C 125.71868,43.873532 112.68031,58.897059 95.447266,60.736328 79.174465,62.473112 70.079439,55.014602 61.671875,48.708984 57.540405,45.610408 53.540558,42.483096 48.060547,40.652344 42.580536,38.821592 36.000164,38.529323 27.259766,40.208984 18.646669,41.864183 11.976283,45.77244 7.5449219,51.265625 3.1135612,56.75881 0.97600991,63.55439 0.23242188,70.708984 -1.2967801,85.422532 4.1232421,101.66524 14.332031,111.58203 c 5.135391,4.98851 12.853887,7.99132 21.767578,10.36914 8.913692,2.37783 19.026904,3.8839 28.623047,4.51758 19.019379,1.2559 35.414064,-0.0508 35.414064,-0.0508 l 0.004,-0.002 c 1.20623,-0.0963 2.14601,0.7039 2.24218,1.91015 v 0.002 c 0.0963,1.20624 -0.70586,2.14602 -1.91211,2.24219 h -0.002 c 0,0 -16.655488,1.33156 -36.021484,0.0527 C 44.918683,129.33349 23.182261,125.98093 11.431641,114.56641 0.15053628,103.60797 -5.5741541,86.287864 -3.9101563,70.277344 -2.2772659,54.566136 7.4825162,39.766565 26.472656,36.117187 45.113824,32.534873 55.741297,39.052122 64.171875,45.375 c 4.283338,3.212476 7.926639,6.378322 12.744141,8.666016 4.817501,2.287693 10.651753,3.346387 18.08789,2.552734 C 102.5697,55.786259 109.38088,51.5868 116.40625,46.269531 123.43162,40.952262 130.71272,34.315185 138.64844,27.726562 152.36758,16.336256 168.6268,6.0134827 189.31641,7.25 Z"
       id="path33"
       sodipodi:nodetypes="cssssssssscccccscssssssssssscccccssssccssssscccccsssssssssssssccccccccsssssssss" />
    <g
       id="path2"
       style="opacity:1">
      <path
         style="baseline-shift:baseline;display:inline;overflow:visible;vector-effect:none;stroke-linecap:round;stroke-linejoin:round;paint-order:markers stroke fill;enable-background:accumulate;stop-color:#000000;stop-opacity:1"
         d="M 189.61719,2.2089844 C 167.09295,0.86282003 149.50211,12.151687 135.42187,23.841797 119.33017,37.201923 106.33091,50.306226 94.46875,51.572266 80.964299,53.013585 76.032404,47.959304 67.201172,41.335937 58.36994,34.712571 45.718277,27.276565 25.519531,31.158203 4.3060933,35.234837 -7.1111811,52.221121 -8.9335938,69.755859 c -1.8224122,17.534739 4.3004007,36.247121 16.8457032,48.433591 13.5163896,13.12979 36.4169036,16.16609 56.2031246,17.47266 19.786222,1.30657 36.757816,-0.0586 36.757816,-0.0586 a 7.1325002,7.1325002 0 0 0 6.54297,-7.67774 7.1325002,7.1325002 0 0 0 -7.677739,-6.54297 c 0,0 -16.084518,1.27505 -34.683594,0.0469 C 46.455612,120.20151 25.644034,115.52857 17.851562,107.95898 9.088004,99.446084 3.9059851,84.218577 5.2558594,71.230469 6.6057336,58.242361 12.836805,48.122826 28.212891,45.167969 c 16.390778,-3.149852 22.12506,1.351661 30.429687,7.580078 8.304628,6.228417 19.258387,14.939585 37.339844,13.009765 19.723738,-2.105099 33.460998,-18.413127 48.550778,-30.941406 15.08978,-12.528279 30.0396,-22.055113 52.01367,-17.28125 5.12996,1.114481 7.85795,2.862697 9.40235,4.607422 1.5444,1.744726 2.28584,3.756545 2.37695,6.873047 0.18223,6.233004 -3.40993,16.178082 -8.9414,25.955078 -11.06295,19.553991 -28.51563,38.542969 -28.51563,38.542969 a 7.1325002,7.1325002 0 0 0 0.39063,10.080078 7.1325002,7.1325002 0 0 0 10.08007,-0.39062 c 0,0 18.20536,-19.545022 30.46094,-41.207036 6.12779,-10.831007 11.11163,-22.164772 10.7832,-33.398438 -0.16421,-5.616833 -1.94978,-11.387547 -5.95312,-15.910156 -4.00334,-4.5226089 -9.84451,-7.5253881 -17.05469,-9.0917969 -3.4233,-0.743712 -6.74123,-1.1944095 -9.95898,-1.3867187 z"
         id="path34" />
    </g>
    <path
       style="display:none;fill:none;stroke:#000000;stroke-width:14.265;stroke-linecap:round;stroke-dasharray:none"
       d="m 117.49216,106.5505 c 0,0 -66.116162,5.2802 -87.425023,-15.419173 C 8.758276,70.431949 7.4625187,23.25169 44.052042,16.220199 80.641566,9.188709 80.825569,40.09359 112.41148,36.722451 c 31.5859,-3.371139 53.47566,-58.82416 102.83616,-48.1006 49.3605,10.723559 -21.9568,87.79379 -21.9568,87.79379"
       id="path2-0"
       sodipodi:nodetypes="cszzzc"
       inkscape:label="backup_large_chain" />
    <path
       style="display:none;fill:none;stroke:#000000;stroke-width:10.165;stroke-linecap:round;stroke-dasharray:none"
       d="m 69.640832,81.426806 c 0,0 26.45356,6.12936 38.136268,-1.30604 11.6827,-7.4354 32.38971,-28.4716 32.38971,-28.4716"
       id="path3-7"
       inkscape:label="backup_small_chain" />
  </g>
</svg>
